<svg width="123" height="123" viewBox="0 0 123 123" fill="none" xmlns="http://www.w3.org/2000/svg">
<rect width="123" height="123" rx="15" fill="#EE7A79"/>
<path d="M14 40.5C14 38.567 15.567 37 17.5 37H105.5C107.433 37 109 38.567 109 40.5V40.5C109 42.433 107.433 44 105.5 44H17.5C15.567 44 14 42.433 14 40.5V40.5Z" fill="#5E3719"/>
<path d="M14 81.5C14 79.567 15.567 78 17.5 78H105.5C107.433 78 109 79.567 109 81.5V81.5C109 83.433 107.433 85 105.5 85H17.5C15.567 85 14 83.433 14 81.5V81.5Z" fill="#5E3719"/>
<path d="M41.5 14C43.433 14 45 15.567 45 17.5L45 105.5C45 107.433 43.433 109 41.5 109V109C39.567 109 38 107.433 38 105.5L38 17.5C38 15.567 39.567 14 41.5 14V14Z" fill="#5E3719"/>
<path d="M82.5 14C84.433 14 86 15.567 86 17.5L86 105.5C86 107.433 84.433 109 82.5 109V109C80.567 109 79 107.433 79 105.5L79 17.5C79 15.567 80.567 14 82.5 14V14Z" fill="#5E3719"/>
</svg>
